<svg id="Layer_1" data-name="Layer 1" xmlns="http://www.w3.org/2000/svg" viewBox="0 0 95.27 40.75"><defs><style>.cls-1,.cls-2{fill:none;}.cls-1,.cls-2,.cls-3{stroke:red;stroke-miterlimit:10;}.cls-2{stroke-width:2px;}.cls-3{fill:red;}</style></defs><title>issIcon</title><line class="cls-1" x1="8.3" y1="0.4" x2="0.3" y2="6.4"/><line class="cls-1" x1="13.3" y1="40.4" x2="8.3" y2="27.4"/><line class="cls-1" x1="18.3" y1="35.4" x2="13.3" y2="40.4"/><line class="cls-1" x1="7.8" y1="23.9" x2="0.8" y2="6.9"/><line class="cls-1" x1="13.8" y1="18.9" x2="7.8" y2="0.9"/><line class="cls-1" x1="7.8" y1="23.9" x2="13.8" y2="18.9"/><line class="cls-1" x1="4.8" y1="3.9" x2="10.8" y2="20.9"/><line class="cls-1" x1="8.8" y1="27.9" x2="14.8" y2="21.9"/><line class="cls-1" x1="14.8" y1="21.9" x2="18.8" y2="35.9"/><line class="cls-1" x1="11.8" y1="24.9" x2="15.8" y2="37.9"/><line class="cls-1" x1="12.8" y1="4.9" x2="22.8" y2="1.9"/><line class="cls-1" x1="26.8" y1="19.9" x2="22.8" y2="1.9"/><line class="cls-1" x1="18.8" y1="22.9" x2="12.8" y2="4.9"/><line class="cls-1" x1="26.8" y1="19.9" x2="18.8" y2="22.9"/><line class="cls-1" x1="17.8" y1="2.9" x2="22.8" y2="21.9"/><line class="cls-1" x1="22.8" y1="38.9" x2="29.8" y2="35.9"/><line class="cls-1" x1="18.8" y1="25.9" x2="22.8" y2="38.9"/><line class="cls-1" x1="18.8" y1="25.9" x2="26.8" y2="22.9"/><line class="cls-1" x1="29.8" y1="35.9" x2="26.8" y2="22.9"/><line class="cls-1" x1="22.8" y1="23.9" x2="25.8" y2="37.9"/><line class="cls-1" x1="10.3" y1="21.4" x2="11.3" y2="25.4"/><line class="cls-2" x1="10.8" y1="22.9" x2="84.8" y2="21.9"/><line class="cls-1" x1="23.3" y1="21.4" x2="23.3" y2="24.4"/><line class="cls-1" x1="70.8" y1="2.9" x2="81.8" y2="4.9"/><line class="cls-1" x1="77.8" y1="22.9" x2="81.8" y2="4.9"/><line class="cls-1" x1="70.8" y1="2.9" x2="68.8" y2="19.9"/><line class="cls-1" x1="68.8" y1="19.9" x2="77.8" y2="21.9"/><line class="cls-1" x1="76.8" y1="3.9" x2="73.8" y2="20.9"/><line class="cls-1" x1="76.8" y1="24.9" x2="68.8" y2="22.9"/><line class="cls-1" x1="65.8" y1="34.9" x2="73.8" y2="36.9"/><line class="cls-1" x1="73.8" y1="36.9" x2="76.8" y2="24.9"/><line class="cls-1" x1="65.8" y1="34.9" x2="68.8" y2="22.9"/><line class="cls-1" x1="72.8" y1="23.9" x2="69.8" y2="35.9"/><line class="cls-1" x1="72.8" y1="23.9" x2="73.8" y2="20.9"/><line class="cls-1" x1="85.8" y1="1.9" x2="94.8" y2="6.9"/><line class="cls-1" x1="88.8" y1="23.9" x2="94.8" y2="6.9"/><line class="cls-1" x1="80.8" y1="18.9" x2="85.8" y2="1.9"/><line class="cls-1" x1="80.8" y1="18.9" x2="88.8" y2="23.9"/><line class="cls-1" x1="84.8" y1="20.9" x2="89.8" y2="4.9"/><line class="cls-1" x1="82.8" y1="37.9" x2="76.8" y2="33.9"/><line class="cls-1" x1="82.8" y1="37.9" x2="87.8" y2="25.9"/><line class="cls-1" x1="76.8" y1="33.9" x2="80.8" y2="21.9"/><line class="cls-1" x1="87.8" y1="25.9" x2="80.8" y2="21.9"/><line class="cls-1" x1="83.8" y1="23.9" x2="84.8" y2="20.9"/><line class="cls-1" x1="79.8" y1="35.9" x2="83.8" y2="23.9"/><line class="cls-3" x1="46.8" y1="37.9" x2="45.8" y2="35.9"/><line class="cls-3" x1="46.8" y1="37.9" x2="48.8" y2="37.9"/><line class="cls-3" x1="48.8" y1="37.9" x2="49.8" y2="35.9"/><line class="cls-1" x1="41.8" y1="17.9" x2="58.8" y2="17.9"/><line class="cls-1" x1="54.8" y1="12.9" x2="41.8" y2="17.9"/><line class="cls-1" x1="42.8" y1="12.9" x2="54.8" y2="17.9"/><line class="cls-2" x1="48.3" y1="15.4" x2="48.3" y2="10.4"/><line class="cls-1" x1="46.3" y1="12.4" x2="50.3" y2="10.4"/><line class="cls-2" x1="29.3" y1="22.4" x2="29.3" y2="18.4"/><line class="cls-2" x1="29.3" y1="22.4" x2="29.3" y2="26.4"/><line class="cls-2" x1="32.3" y1="22.4" x2="32.3" y2="18.4"/><line class="cls-2" x1="32.3" y1="22.4" x2="32.3" y2="27.4"/><line class="cls-1" x1="46.8" y1="15.9" x2="46.8" y2="22.9"/><line class="cls-1" x1="49.8" y1="16.4" x2="49.8" y2="22.4"/><line class="cls-1" x1="46.3" y1="36.4" x2="46.3" y2="30.4"/><line class="cls-1" x1="49.8" y1="35.9" x2="49.8" y2="30.9"/><line class="cls-1" x1="49.8" y1="30.9" x2="68.8" y2="21.9"/><line class="cls-1" x1="45.8" y1="30.9" x2="34.8" y2="22.9"/></svg>